<svg width="40" height="50" viewBox="0 0 40 50" fill="none" xmlns="http://www.w3.org/2000/svg">
<path d="M1.33415 43.3441C0.591812 42.9764 0.288147 42.0765 0.655888 41.3341L6.64856 29.2371C7.0163 28.4948 7.9162 28.1911 8.65853 28.5589C9.40086 28.9266 9.70453 29.8265 9.33679 30.5688L4.00997 41.3217L14.7629 46.6486C15.5052 47.0163 15.8089 47.9162 15.4411 48.6585C15.0734 49.4009 14.1735 49.7045 13.4312 49.3368L1.33415 43.3441ZM39.4924 1.1512C39.1312 4.71595 36.7819 12.9191 31.122 21.3846C25.4364 29.8884 16.3553 38.7389 2.4796 43.4213L1.5204 40.5787C14.6447 36.15 23.2302 27.7906 28.628 19.7172C34.0514 11.6056 36.2021 3.8643 36.5076 0.848804L39.4924 1.1512Z" fill="black"/>
</svg>
