<svg width="40" height="50" viewBox="0 0 40 50" fill="none" xmlns="http://www.w3.org/2000/svg">
<path d="M38.6708 42.8416C39.4118 42.4712 39.7121 41.5701 39.3416 40.8292L33.3043 28.7544C32.9338 28.0134 32.0328 27.7131 31.2918 28.0836C30.5508 28.4541 30.2505 29.3551 30.621 30.0961L35.9875 40.8292L25.2544 46.1957C24.5134 46.5662 24.2131 47.4672 24.5836 48.2082C24.9541 48.9492 25.8551 49.2495 26.5961 48.879L38.6708 42.8416ZM0.507828 1.15304C0.869677 4.68108 3.22132 12.7888 8.88279 21.1533C14.5707 29.5568 23.6529 38.2988 37.5257 42.923L38.4743 40.077C25.3471 35.7012 16.7627 27.4432 11.3672 19.4717C5.94535 11.4612 3.79699 3.81892 3.49217 0.846957L0.507828 1.15304Z" fill="black"/>
</svg>
