<svg width="16" height="11" viewBox="0 0 16 11" fill="none" xmlns="http://www.w3.org/2000/svg">
<path d="M2.35 1H13.65C14.3956 1 15 1.60442 15 2.35V8C15 9.10457 14.1046 10 13 10H3C1.89543 10 1 9.10457 1 8V2.35C1 1.60442 1.60442 1 2.35 1Z" fill="white"/>
<path d="M1 2.35V2.35C1 1.60442 1.60442 1 2.35 1H13.65C14.3956 1 15 1.60442 15 2.35V2.35M1 2.35V9M1 2.35L6.5 5.5M15 2.35V9M15 2.35L10 5.5M1 9V9C1 9.55228 1.44772 10 2 10H14C14.5523 10 15 9.55228 15 9V9M1 9L6.5 5.5M6.5 5.5L7.34354 5.93154C7.91824 6.22554 8.59952 6.22408 9.17296 5.9276L10 5.5M15 9L10 5.5" stroke="#93282C"/>
</svg>
